<svg xmlns="http://www.w3.org/2000/svg" viewBox="0 0 120 144" width="120" height="144">
  <defs>
    <linearGradient id="g" x1="0%" y1="0%" x2="0%" y2="100%">
      <stop offset="0%" stop-color="#60a5fa"/>
      <stop offset="100%" stop-color="#1d4ed8"/>
    </linearGradient>
  </defs>
  <!-- Shield -->
  <path d="M60 4 L116 32 L116 88 L60 140 L4 88 L4 32 Z" fill="url(#g)" stroke="#1e3a8a" stroke-width="3" stroke-linejoin="round"/>
  <!-- Inner border -->
  <path d="M60 16 L106 40 L106 82 L60 128 L14 82 L14 40 Z" fill="none" stroke="white" stroke-width="1.5" opacity="0.3" stroke-linejoin="round"/>
  <!-- Helm wheel: circle + 6 spokes -->
  <circle cx="60" cy="72" r="22" fill="none" stroke="white" stroke-width="4"/>
  <circle cx="60" cy="72" r="5" fill="white"/>
  <line x1="60" y1="46" x2="60" y2="54" stroke="white" stroke-width="4" stroke-linecap="round"/>
  <line x1="60" y1="90" x2="60" y2="98" stroke="white" stroke-width="4" stroke-linecap="round"/>
  <line x1="36" y1="59" x2="42" y2="63" stroke="white" stroke-width="4" stroke-linecap="round"/>
  <line x1="78" y1="81" x2="84" y2="85" stroke="white" stroke-width="4" stroke-linecap="round"/>
  <line x1="36" y1="85" x2="42" y2="81" stroke="white" stroke-width="4" stroke-linecap="round"/>
  <line x1="78" y1="63" x2="84" y2="59" stroke="white" stroke-width="4" stroke-linecap="round"/>
</svg>
